<svg aria-hidden="true" style="position: absolute; width: 0; height: 0; overflow: hidden;" version="1.1"
  xmlns="http://www.w3.org/2000/svg" xmlns:xlink="http://www.w3.org/1999/xlink">
  <defs>
    <symbol id="icon-logo" viewBox="0 0 108 32">
      <path fill="#f1a501" style="fill: var(--color1, #f1a501)"
        d="M69.722 26.639l8.941 2.824 7.529-7.529 9.412 6.588 9.882-1.882-4.235-13.647-15.059 4.706-8.471-4.706-8.941 1.412 0.941 12.235z">
      </path>
      <path fill="#000" style="fill: var(--color2, #000)"
        d="M0 21.993v-2.035l5.758-1.039v2.814c0.029 1.53 0.418 2.684 1.169 3.464 0.779 0.75 1.804 1.126 3.074 1.126 1.241 0 2.222-0.404 2.944-1.212 0.75-0.808 1.126-1.891 1.126-3.247v-21.214h5.975v21.214c0 2.829-0.938 5.224-2.814 7.187s-4.272 2.944-7.187 2.944c-3.031 0-5.47-0.909-7.317-2.728-1.818-1.847-2.728-4.272-2.728-7.273z">
      </path>
      <path fill="#000" style="fill: var(--color2, #000)"
        d="M21.418 25.544c0-1.818 0.592-3.276 1.775-4.373s2.713-1.789 4.589-2.078l5.239-0.779c1.068-0.144 1.602-0.649 1.602-1.515 0-0.808-0.317-1.472-0.952-1.992-0.606-0.52-1.486-0.779-2.641-0.779-1.212 0-2.179 0.332-2.901 0.996-0.693 0.664-1.082 1.486-1.169 2.468l-5.109-1.082c0.202-1.847 1.111-3.478 2.728-4.892s3.752-2.121 6.408-2.121c3.175 0 5.513 0.765 7.014 2.295 1.501 1.501 2.251 3.435 2.251 5.801v10.477c0 1.27 0.087 2.396 0.26 3.377h-5.282c-0.144-0.635-0.216-1.486-0.216-2.554-1.357 2.107-3.449 3.16-6.278 3.16-2.194 0-3.969-0.635-5.325-1.905-1.328-1.27-1.992-2.771-1.992-4.503zM29.947 27.665c1.357 0 2.468-0.375 3.334-1.126 0.895-0.779 1.342-2.049 1.342-3.81v-0.952l-4.806 0.736c-1.761 0.26-2.641 1.155-2.641 2.684 0 0.693 0.245 1.284 0.736 1.775 0.491 0.462 1.169 0.693 2.035 0.693z">
      </path>
      <path fill="#000" style="fill: var(--color2, #000)"
        d="M62.812 0v27.492c0 1.414 0.058 2.699 0.173 3.853h-5.498c-0.144-0.722-0.216-1.544-0.216-2.468-0.491 0.895-1.27 1.616-2.338 2.165-1.039 0.548-2.251 0.823-3.637 0.823-3.031 0-5.527-1.053-7.49-3.16-1.934-2.136-2.901-4.82-2.901-8.053 0-3.146 0.952-5.787 2.857-7.923 1.934-2.136 4.387-3.204 7.36-3.204 3.059 0 5.065 0.88 6.018 2.641v-12.166h5.672zM46.707 20.651c0 1.876 0.491 3.363 1.472 4.459 0.981 1.068 2.251 1.602 3.81 1.602 1.53 0 2.785-0.548 3.767-1.645s1.472-2.583 1.472-4.459c0-1.847-0.491-3.29-1.472-4.329-0.981-1.068-2.237-1.602-3.767-1.602s-2.8 0.534-3.81 1.602c-0.981 1.068-1.472 2.525-1.472 4.373z">
      </path>
      <path fill="#000" style="fill: var(--color2, #000)"
        d="M71.31 25.154c1.068 1.068 2.352 1.602 3.853 1.602s2.771-0.534 3.81-1.602c1.068-1.068 1.602-2.554 1.602-4.459s-0.534-3.391-1.602-4.459c-1.039-1.068-2.309-1.602-3.81-1.602s-2.785 0.534-3.853 1.602c-1.039 1.068-1.559 2.554-1.559 4.459s0.52 3.391 1.559 4.459zM67.154 12.599c2.136-2.136 4.806-3.204 8.009-3.204s5.859 1.068 7.966 3.204c2.136 2.136 3.204 4.835 3.204 8.096s-1.068 5.96-3.204 8.096c-2.107 2.136-4.762 3.204-7.966 3.204s-5.874-1.068-8.009-3.204c-2.107-2.136-3.16-4.835-3.16-8.096s1.053-5.96 3.16-8.096z">
      </path>
      <path fill="#000" style="fill: var(--color2, #000)"
        d="M93.129 25.154c1.068 1.068 2.352 1.602 3.853 1.602s2.771-0.534 3.81-1.602c1.068-1.068 1.602-2.554 1.602-4.459s-0.534-3.391-1.602-4.459c-1.039-1.068-2.309-1.602-3.81-1.602s-2.785 0.534-3.853 1.602c-1.039 1.068-1.559 2.554-1.559 4.459s0.52 3.391 1.559 4.459zM88.973 12.599c2.136-2.136 4.806-3.204 8.009-3.204s5.859 1.068 7.966 3.204c2.136 2.136 3.204 4.835 3.204 8.096s-1.068 5.96-3.204 8.096c-2.107 2.136-4.762 3.204-7.966 3.204s-5.874-1.068-8.009-3.204c-2.107-2.136-3.161-4.835-3.161-8.096s1.054-5.96 3.161-8.096z">
      </path>
    </symbol>
    <symbol id="icon-plane" viewBox="0 0 35 32">
      <path fill="#d5d6db" style="fill: var(--color3, #d5d6db)"
        d="M19.984 18.046c-0.282 0.063-0.557 0.18-0.808 0.344-0.653 0.416-1.032 1.009-0.848 1.326s0.863 0.235 1.515-0.18c0.254-0.158 0.479-0.36 0.663-0.593 0.085-0.113 0.1-0.253 0.039-0.358l-0.239-0.411c-0.061-0.105-0.187-0.155-0.322-0.128z">
      </path>
      <path fill="#d5d6db" style="fill: var(--color3, #d5d6db)"
        d="M18.345 12.437c-0.205 0.046-0.404 0.131-0.586 0.249-0.473 0.301-0.749 0.732-0.615 0.961s0.626 0.17 1.099-0.131c0.184-0.114 0.348-0.261 0.481-0.43 0.062-0.082 0.073-0.183 0.028-0.259l-0.173-0.298c-0.044-0.076-0.136-0.113-0.233-0.093z">
      </path>
      <path fill="#029bc5" style="fill: var(--color4, #029bc5)"
        d="M15.683 12.672c-0.046-0.005-0.094 0.007-0.136 0.034l-1.111 0.708c-0.093 0.059-0.13 0.173-0.083 0.254 0.011 0.019 0.026 0.035 0.043 0.047l2.739 1.888 3.706-2.361-5.158-0.569z">
      </path>
      <path fill="#e1e6e9" style="fill: var(--color5, #e1e6e9)"
        d="M27.397 12.405l-10.085 6.348-5.966 2.374-3.043 0.605-0.335-0.569 16.809-10.379c0.501-0.311 1.059-0.501 1.618-0.553 0.245-0.021 0.486-0.013 0.719 0.024 0.207 0.031 0.402 0.092 0.582 0.179 0.2 0.099 0.581 0.111 0.705 0.309 0-0 0.292 0.909-1.005 1.66z">
      </path>
      <path fill="#029bc5" style="fill: var(--color4, #029bc5)"
        d="M17.447 17.914l-4.363 6.955c-0.054 0.098-0.022 0.207 0.072 0.244 0.058 0.023 0.129 0.014 0.188-0.024l1.11-0.704c0.214-0.136 0.403-0.308 0.556-0.506l8.461-9.947-6.024 3.982z">
      </path>
      <path fill="#029bc5" style="fill: var(--color4, #029bc5)"
        d="M6.438 17.681c-0.073-0.025-0.159-0.012-0.232 0.035l-0.918 0.585c-0.125 0.080-0.175 0.233-0.111 0.342 0.012 0.021 0.028 0.039 0.047 0.054l2.572 2.060 2.704-1.689-4.061-1.386z">
      </path>
      <path fill="#029bc5" style="fill: var(--color4, #029bc5)"
        d="M8.657 21.128l-1.384 1.939c-0.020 0.028-0.016 0.063 0.011 0.078 0.019 0.011 0.045 0.009 0.066-0.005l0.858-0.544c0.007-0.004 0.013-0.010 0.018-0.016l2.023-2.459-1.59 1.007z">
      </path>
      <path fill="#029bc5" style="fill: var(--color4, #029bc5)"
        d="M26.95 10.34c-0.24-0.039-0.489-0.047-0.741-0.025-0.245 0.343-0.402 0.728-0.455 1.118-0.004 0.078 0.059 0.134 0.141 0.126 0.026-0.003 0.051-0.012 0.073-0.026l1.581-1.007c-0.185-0.091-0.387-0.154-0.599-0.186z">
      </path>
      <path fill="#d5d6db" style="fill: var(--color3, #d5d6db)"
        d="M23.505 12.191l1.032-0.652 0.961 1.635-1.032 0.652-0.961-1.635z"></path>
      <path fill="#3a556a" style="fill: var(--color6, #3a556a)"
        d="M22.855 12.838c-0.124 0.079-0.174 0.23-0.111 0.338l0.102 0.175c0.067 0.105 0.221 0.124 0.343 0.041 0.116-0.079 0.163-0.221 0.107-0.327l-0.102-0.175c-0.063-0.108-0.215-0.132-0.339-0.053z">
      </path>
      <path fill="#3a556a" style="fill: var(--color6, #3a556a)"
        d="M21.928 13.414c-0.124 0.079-0.174 0.23-0.111 0.338l0.102 0.175c0.067 0.105 0.221 0.124 0.343 0.041 0.116-0.079 0.163-0.221 0.107-0.327l-0.102-0.175c-0.063-0.108-0.215-0.132-0.339-0.053z">
      </path>
      <path fill="#3a556a" style="fill: var(--color6, #3a556a)"
        d="M21 13.991c-0.124 0.079-0.174 0.23-0.111 0.338l0.102 0.175c0.067 0.105 0.221 0.124 0.343 0.041 0.116-0.078 0.163-0.221 0.107-0.327l-0.102-0.175c-0.063-0.108-0.215-0.132-0.34-0.053z">
      </path>
      <path fill="#3a556a" style="fill: var(--color6, #3a556a)"
        d="M20.072 14.567c-0.124 0.079-0.174 0.23-0.111 0.338l0.102 0.175c0.067 0.105 0.221 0.124 0.343 0.041 0.116-0.079 0.163-0.221 0.107-0.327l-0.102-0.175c-0.063-0.108-0.215-0.132-0.34-0.053z">
      </path>
      <path fill="#3a556a" style="fill: var(--color6, #3a556a)"
        d="M19.145 15.143c-0.124 0.079-0.174 0.23-0.111 0.338l0.102 0.175c0.063 0.108 0.215 0.132 0.339 0.053s0.174-0.23 0.111-0.338l-0.102-0.175c-0.063-0.108-0.215-0.132-0.339-0.053-0 0-0 0-0 0z">
      </path>
      <path fill="#3a556a" style="fill: var(--color6, #3a556a)"
        d="M18.217 15.719c-0.124 0.079-0.174 0.23-0.111 0.338l0.102 0.175c0.063 0.108 0.215 0.132 0.339 0.053s0.174-0.23 0.111-0.338l-0.102-0.175c-0.063-0.108-0.215-0.132-0.339-0.053-0 0-0 0-0 0z">
      </path>
      <path fill="#3a556a" style="fill: var(--color6, #3a556a)"
        d="M17.289 16.295c-0.124 0.079-0.174 0.23-0.111 0.338l0.102 0.175c0.063 0.108 0.215 0.131 0.34 0.052s0.174-0.23 0.111-0.337l-0.102-0.175c-0.063-0.108-0.215-0.132-0.339-0.053z">
      </path>
      <path fill="#3a556a" style="fill: var(--color6, #3a556a)"
        d="M16.362 16.871c-0.124 0.079-0.174 0.23-0.111 0.338l0.102 0.175c0.063 0.108 0.215 0.131 0.34 0.052s0.174-0.23 0.111-0.337l-0.102-0.175c-0.063-0.108-0.215-0.132-0.339-0.053z">
      </path>
      <path fill="#3a556a" style="fill: var(--color6, #3a556a)"
        d="M15.434 17.447c-0.124 0.079-0.174 0.23-0.111 0.338l0.102 0.175c0.063 0.108 0.215 0.131 0.339 0.052s0.174-0.23 0.111-0.337l-0.102-0.175c-0.063-0.108-0.215-0.132-0.339-0.053z">
      </path>
      <path fill="#3a556a" style="fill: var(--color6, #3a556a)"
        d="M14.506 18.023c-0.124 0.079-0.174 0.23-0.111 0.338l0 0 0.102 0.175c0.063 0.108 0.215 0.131 0.339 0.052s0.174-0.23 0.111-0.337l-0.102-0.175c-0.063-0.108-0.215-0.132-0.339-0.053z">
      </path>
      <path fill="#3a556a" style="fill: var(--color6, #3a556a)"
        d="M13.579 18.599c-0.124 0.079-0.174 0.23-0.111 0.338l0 0 0.102 0.175c0.063 0.108 0.215 0.131 0.339 0.052s0.174-0.23 0.111-0.337l-0.102-0.175c-0.063-0.108-0.215-0.132-0.339-0.053z">
      </path>
    </symbol>
    <symbol id="icon-header-decore" viewBox="0 0 31 32">
      <path
        d="M0.986 9.812c-1.786-3.041-0.744-9.223 0-11.934l30.033-4.464 2.851 12-1.702 26.564c-3.477 0.044-11.231-0.287-14.431-1.967-4-2.099-2.188-5.481-5.503-7.249s-1.414-6.431-2.564-8.199c-1.149-1.768-6.453-0.95-8.685-4.751z">
      </path>
    </symbol>
    <symbol id="icon-list-down" viewBox="0 0 53 32">
      <path stroke-linejoin="miter" stroke-linecap="butt" stroke-miterlimit="4" stroke-width="5.3333"
        d="M1.885 1.886l24 24 24-24"></path>
    </symbol>
    <symbol id="icon-play" viewBox="0 0 30 32">
      <path fill="#fff" style="fill: var(--color1, #fff)" d="M27.692 15.988l-27.692 15.988v-31.976l27.692 15.988z">
      </path>
    </symbol>
  </defs>
</svg>